<svg width="282" height="104" viewBox="0 0 282 104" fill="none" xmlns="http://www.w3.org/2000/svg">
<path d="M250.434 102.235L250.48 101.969C256.728 101.649 281.446 104.155 281.34 96.3886C281.225 87.8593 272.479 76.9253 263.274 64.485C263.455 64.4672 263.711 64.185 264.347 63.6444C264.546 63.4676 262.028 60.3694 261.817 60.0495C260.381 57.8436 260.645 57.8635 259.347 58.8213C256.209 52.168 265.347 48.9605 261.472 38.2154C264.228 31.3414 258.093 25.2862 248.334 28.0227C247.141 27.5994 245.852 27.6113 245.222 28.5811C244.824 29.2031 243.731 28.1677 241.559 28.8514C240.037 29.3303 240.464 30.316 239.53 31.1765C239.242 31.4428 237.253 32.5338 237.185 34.2826C236.337 34.992 235.478 35.7591 234.602 36.5937C234.296 36.5426 233.987 36.5167 233.678 36.5163C230.754 36.5163 228.386 38.7301 228.386 41.4625C228.386 41.9921 228.477 42.5176 228.654 43.0166C228.489 43.2431 228.328 43.4717 228.171 43.7062L220.639 37.2496C220.923 44.7813 208.684 51.2717 206.301 55.91C206.118 56.2697 205.937 56.6175 205.761 56.9593L194.491 51.3949C191.353 49.3222 184.064 44.1394 183.913 43.8791C183.91 43.8714 183.91 43.8629 183.913 43.8552L186.265 43.1795C189.27 42.5834 194.594 41.7726 198.922 41.23C200.524 41.0313 209.654 39.2587 213.781 37.9709C215.57 38.116 218.789 37.1641 220.643 37.2416C222.938 37.341 225.16 35.3179 225.985 33.3386C226.382 32.4006 227.589 30.3577 229.02 28.0485C231.146 26.6932 235.51 24.1992 234.534 22.2636C234.29 21.7826 233.711 21.6813 232.994 21.7866C233.946 20.3041 234.727 19.0859 235.116 18.444C237.312 14.8213 237.243 14.2708 234.862 14.3185C232.998 14.3503 229.039 14.4536 228.105 14.5967C226.843 14.7954 226.651 14.9643 224.727 17.4226C224.512 17.6968 224.294 17.9843 224.071 18.2851H224.055C219.934 18.9548 218.543 19.1356 216.289 23.1558C215.743 24.1296 215.361 24.7814 215.047 25.3657C204.369 25.7055 186.975 27.7504 182.178 28.5314C174.229 29.8092 171.679 28.8156 166.174 34.3581C160.212 40.3636 165.815 50.1012 168.97 53.0205C170.024 53.9962 178.096 62.2792 182.8 66.834C180.186 66.7545 177.506 66.6154 174.747 66.3789C159.076 65.0355 149.654 63.8312 149.654 63.8312L149.63 64.2585C142.776 54.0757 140.125 46.9911 129.581 36.1466C121.562 27.8955 109.138 32.3708 100.644 41.0611C90.1116 51.8401 79.0524 68.1595 71.32 79.9599C55.0959 82.126 40.0563 83.694 28.7925 83.694C28.7925 84.3935 28.7805 85.1049 28.7627 85.8183C26.9642 86.0171 25.6526 86.1641 25.6526 86.1641C25.5438 86.6316 25.39 87.0875 25.1935 87.5254C25.2869 86.2993 25.3326 85.5024 25.3028 85.4567C20.0425 77.438 22.8028 63.3761 12.94 63.6663C11.6404 63.704 8.731 100.007 8.14873 102.643C8.04937 103.422 23.4129 103.346 23.8481 102.71C23.8621 102.69 23.9813 101.48 24.1482 99.7093C25.1697 99.7888 26.5329 99.8683 28.0055 99.9458C27.9757 100.741 27.9598 101.502 27.9598 102.235H154.515L154.539 102.122L181.963 101.683L250.434 102.235ZM257.316 83.7536C257.251 83.7138 254.947 83.5548 253.65 83.4694C253.687 83.227 253.713 83.058 253.723 82.9805C253.723 82.9805 242.879 78.3343 239.482 75.878C237.571 74.4917 235.555 73.2553 233.453 72.1797C236.911 68.5232 241.058 63.3225 244.498 58.8949C244.973 60.9219 246.545 62.462 247.513 64.5347C247.608 64.7334 248.018 65.4389 248.616 66.4505C248.765 66.7167 248.95 67.0228 249.127 67.309C251.736 71.6949 256.647 79.9201 257.672 82.8355C257.04 81.4146 256.48 80.252 256.317 80.0334L257.857 83.6463C257.845 83.9225 257.682 83.9801 257.316 83.7536ZM105.886 74.7592L111.975 73.9941L105.733 74.944L105.886 74.7592Z" fill="white" fill-opacity="0.4"/>
<path d="M250.778 102.645L250.826 102.362C252.064 102.321 253.912 102.362 256.009 102.418C258.034 102.466 260.313 102.521 262.658 102.521C269.874 102.521 277.698 101.997 280.575 99.143C280.953 98.7895 281.253 98.3607 281.455 97.8842C281.657 97.4077 281.757 96.8942 281.748 96.3767C281.642 88.4694 274.395 78.7516 266.025 67.4977C265.313 66.5438 264.592 65.5721 263.868 64.5943C263.958 64.5208 264.055 64.4354 264.168 64.334C264.282 64.2327 264.437 64.0975 264.612 63.9485C264.981 63.6325 264.685 63.1834 264.031 62.2812C263.608 61.685 263.065 60.9954 262.668 60.4926C262.43 60.1846 262.203 59.8965 262.159 59.8269C261.992 59.5705 261.849 59.346 261.724 59.1473C261.156 58.257 260.929 57.8873 260.496 57.8098C260.166 57.7502 259.9 57.9072 259.516 58.1874C258.481 55.5582 259.476 53.4935 260.677 51.0094C262.235 47.79 263.994 44.1454 261.907 38.2233C262.577 36.4864 262.73 34.7357 262.314 33.0823C261.599 30.2444 259.333 28.1439 256.082 27.3192C253.698 26.723 251.082 26.8244 248.332 27.5914C247.906 27.4471 247.46 27.3661 247.01 27.351C246.056 27.3371 245.329 27.6828 244.88 28.3724C244.688 28.3863 244.495 28.3695 244.308 28.3228C243.357 28.1228 242.371 28.1714 241.444 28.4639C240.347 28.8096 240.077 29.4297 239.838 29.9762C239.717 30.3167 239.52 30.6252 239.262 30.8784C239.234 30.9042 239.137 30.9738 239.049 31.0354C238.415 31.4865 236.963 32.5219 236.802 34.0938C236.028 34.743 235.257 35.4332 234.489 36.1645C234.225 36.1294 233.96 36.1115 233.694 36.1108C230.552 36.1108 227.994 38.5135 227.994 41.4645C227.994 41.9678 228.07 42.4682 228.219 42.949C226.009 46.0373 224.938 49.1354 225.051 52.0646C223.423 54.4295 223.773 57.2653 224.455 59.4175C224.087 59.9561 223.66 60.5125 223.177 61.1246C222.581 61.8857 221.913 62.7462 221.259 63.7279L221.049 64.0478L206.325 56.7705L206.675 56.0908C207.503 54.4772 209.684 52.5336 211.991 50.4748C216.208 46.7149 220.969 42.4681 221.061 37.647C223.37 37.5059 225.534 35.4988 226.367 33.4956C226.742 32.5934 227.927 30.5942 229.324 28.3426L229.84 28.0187C232.279 26.4905 235.963 24.1793 234.904 22.0827C234.794 21.8722 234.63 21.6947 234.429 21.5683C234.228 21.4419 233.997 21.3712 233.759 21.3634C234.53 20.1571 235.136 19.2092 235.47 18.6567C236.849 16.3833 237.396 15.2465 236.989 14.5351C236.677 13.9926 235.945 13.8932 234.862 13.9131C233.308 13.9389 229.057 14.0403 228.05 14.1973C226.609 14.4198 226.349 14.6981 224.415 17.1782C224.232 17.4127 224.044 17.6591 223.853 17.9154C219.789 18.5732 218.267 18.8216 215.943 22.9631C215.729 23.3466 215.546 23.6785 215.371 23.9766C215.156 24.3522 214.974 24.6741 214.811 24.9702C203.849 25.3379 186.315 27.4583 182.122 28.132C180.469 28.3983 179.042 28.5672 177.784 28.7142C172.989 29.2806 170.348 29.5906 165.894 34.0799C164.012 35.9737 163.088 38.3624 163.148 41.1764C163.251 46.1088 166.458 51.2518 168.712 53.3285C169.129 53.7141 170.699 55.3158 172.708 57.3289C176.947 61.6095 179.819 64.4831 181.782 66.4008C179.511 66.3173 177.19 66.1842 174.801 65.9795C159.318 64.654 149.817 63.4457 149.724 63.4338L149.565 63.4139C147.758 60.6953 146.236 58.1854 144.738 55.7152C140.948 49.4633 137.367 43.5571 129.887 35.8605C126.999 32.8796 123.446 31.3792 119.33 31.3732H119.309C113.198 31.3732 106.119 34.8867 100.366 40.775C89.8573 51.5301 78.8141 67.8018 71.0915 79.5843C54.9132 81.7445 40.0604 83.2846 28.8124 83.2846H28.415V83.692C28.415 84.2723 28.405 84.8585 28.3931 85.4487C27.0617 85.5898 26.0501 85.7071 25.7361 85.7448C25.7361 85.3474 25.7103 85.2878 25.6726 85.2321C23.7509 82.3068 22.9202 78.5688 22.1173 74.952C20.7799 68.9385 19.516 63.2529 13.2581 63.2529C13.1548 63.2529 13.0594 63.2529 12.9461 63.2529C12.4513 63.2668 12.024 63.2808 10.8615 73.1515C10.2176 78.6364 9.528 85.6713 8.97355 91.333C8.42904 96.8974 7.95806 101.695 7.76927 102.549V102.585C7.75337 102.702 7.76927 102.996 8.19852 103.159C9.08682 103.493 12.6917 103.608 15.8078 103.608H16.5808C23.7807 103.563 24.0768 103.121 24.204 102.933C24.2437 102.871 24.2815 102.815 24.5358 100.151C25.293 100.206 26.2866 100.268 27.6002 100.335C27.5783 100.989 27.5664 101.625 27.5664 102.239V102.637H147.053H147.486H154.839L154.865 102.517L181.953 102.084L250.778 102.645ZM25.0505 94.1728C25.3367 90.9515 25.5076 88.9125 25.603 87.6148C25.7858 87.1538 25.917 86.8021 26.0005 86.5358C26.7814 86.4444 27.5704 86.3549 28.3554 86.2715C28.2779 88.7496 28.1089 91.2774 27.942 93.7456C27.8069 95.7626 27.6777 97.7022 27.6062 99.5086C26.4754 99.447 25.4361 99.3854 24.5895 99.3278C24.7048 98.1056 24.8518 96.4304 25.0505 94.1728ZM29.188 85.3653C29.188 84.942 29.2039 84.5207 29.2059 84.0994C40.281 84.0636 54.7423 82.5751 70.4874 80.4865L71.5546 80.3454C82.262 78.9126 93.5357 77.2115 104.724 75.5104L105.948 75.3236L107.737 75.0494C110.753 74.5896 113.734 74.1372 116.679 73.6921L117.534 73.5629C123.957 72.5931 130.165 71.675 136.016 70.8642C136.115 70.9755 136.214 71.0828 136.304 71.1782L136.731 70.7668C141.014 70.1706 145.101 69.646 148.935 69.1988L148.102 83.8828C146.236 84.1391 136.492 84.9102 125.447 85.723L124.112 85.8203C113.164 86.6152 101.22 87.4459 94.5433 87.8394L93.3012 87.9109C91.4213 88.0163 90.1057 88.0759 89.5532 88.0759C82.5143 88.0759 74.301 88.4455 65.9584 88.8986L64.9469 88.9543C62.5622 89.0854 60.1576 89.2225 57.7768 89.3517C51.5805 89.7054 45.2571 90.0671 39.3132 90.3096L38.9157 90.3255L38.5083 90.3414C35.1618 90.4745 31.9503 90.5639 28.9496 90.5938C29.039 89.1192 29.1145 87.6407 29.1582 86.178C29.1582 86.0409 29.1582 85.9058 29.1582 85.7806L29.188 85.3653ZM221.933 64.1691C222.569 63.2112 223.201 62.4004 223.813 61.6134C224.155 61.1762 224.483 60.7549 224.783 60.3416C225.095 61.1403 225.477 61.9103 225.923 62.6428L225.951 62.625C224.882 63.7279 224.199 65.7132 223.592 68.1396C222.562 67.8919 221.524 67.6753 220.478 67.4898C220.487 66.9225 220.619 66.3639 220.864 65.8523C221.21 65.2839 221.573 64.7195 221.939 64.1691H221.933ZM280.927 96.3926C280.936 96.8021 280.858 97.2088 280.697 97.5857C280.537 97.9626 280.298 98.3011 279.997 98.5786C276.42 102.106 263.656 101.796 256.023 101.611C254.433 101.571 253.07 101.54 251.961 101.54C251.599 101.54 251.267 101.54 250.967 101.54H250.738C250.818 100.872 250.975 99.5623 251.176 97.9347C251.519 95.1386 251.988 91.4046 252.404 88.3819C252.676 86.4066 252.926 84.7353 253.103 83.8311H253.173L253.57 83.8589L253.98 83.8867C255.345 83.9781 256.831 84.0854 257.159 84.1272C257.257 84.1944 257.367 84.2412 257.483 84.2648C257.599 84.2884 257.719 84.2882 257.835 84.2643C258.693 86.2516 259.542 88.3501 259.637 88.8609L260.432 88.7138C260.317 88.0878 259.081 85.0552 258.03 82.6805C257.926 82.3824 257.779 82.0207 257.583 81.5815C257.112 80.5342 256.366 79.0835 255.369 77.2691C253.833 74.4731 251.921 71.2278 250.432 68.7239C251.079 68.6384 251.72 68.5103 252.35 68.3403C255.375 67.5733 260.738 65.6238 261.78 63.2669C262.025 63.5781 262.255 63.9018 262.467 64.2366C262.666 64.5387 262.801 64.7533 263.022 64.8328C263.817 65.892 264.588 66.9413 265.355 67.9727C273.658 79.1312 280.83 88.7516 280.933 96.3926H280.927ZM132.172 88.6562C120.332 89.3378 100.773 90.2857 91.5882 90.6434L90.2965 90.6931C88.6033 90.7567 87.399 90.7905 86.8545 90.7905C79.5772 90.7905 71.7096 91.2674 64.0884 91.7325L63.8499 91.7464L63.055 91.7941C55.0324 92.2829 46.7912 92.7678 39.3489 92.6744H38.9415H38.5341H38.3732C35.3923 92.6168 33.5302 92.903 31.5469 93.207C30.6825 93.3382 29.7922 93.4753 28.7647 93.5926C28.8124 92.8751 28.8621 92.1518 28.9078 91.4264C31.9205 91.3986 35.1578 91.3072 38.5242 91.176L38.9217 91.1601L39.3291 91.1422C45.2909 90.8998 51.6223 90.5461 57.8305 90.1844C60.0165 90.0592 62.2025 89.934 64.3885 89.8128L65.402 89.7571C73.9472 89.2901 82.3653 88.9026 89.5552 88.9026C89.8851 88.9026 90.8986 88.8529 92.4348 88.7655L93.6907 88.6919C100.29 88.2945 113.464 87.4121 125.262 86.5616L126.944 86.4404C136.989 85.7091 145.725 85.0254 148.048 84.7234L147.882 87.6884C147.053 87.7639 145.928 87.7758 145.07 87.7838C143.734 87.7977 142.472 87.8096 141.828 87.9825C141.508 88.0679 139.463 88.2229 136.335 88.4197C135.121 88.4833 133.716 88.5667 132.178 88.6562H132.172ZM188.964 77.1896C189.248 77.1896 189.527 77.1896 189.807 77.2055C190.93 77.2373 192.017 77.3129 193.04 77.4043C195.216 77.6169 196.802 77.4659 197.975 77.0068C198.162 76.936 198.344 76.853 198.521 76.7584C198.676 76.6785 198.826 76.5896 198.97 76.4921C200.993 75.101 201.297 72.3665 201.685 68.8948C201.746 68.3384 201.81 67.7621 201.883 67.1679C201.899 67.0327 201.917 66.8956 201.935 66.7585C201.953 66.6214 201.973 66.4882 201.993 66.3511C202.116 65.4707 202.271 64.5626 202.478 63.6305C202.714 62.563 203.024 61.5131 203.406 60.4887C203.854 59.2948 204.423 58.1496 205.103 57.0706C205.149 56.997 205.194 56.9235 205.244 56.85L205.323 56.9036L205.92 57.3011L205.832 57.4382C205.145 58.512 204.574 59.6558 204.129 60.8503C203.489 62.6294 203.047 64.4734 202.81 66.3491C202.79 66.4842 202.77 66.6214 202.752 66.7466L202.698 67.1539C202.621 67.774 202.553 68.3841 202.486 68.9802C202.122 72.2453 201.802 75.111 199.938 76.7743C199.821 76.8796 199.698 76.973 199.568 77.0744C199.439 77.1757 199.276 77.2731 199.119 77.3665C197.772 78.1495 195.824 78.4814 192.959 78.2012C191.915 78.0998 190.804 78.0243 189.66 78.0024C189.384 78.0024 189.105 77.9905 188.825 77.9885C183.807 77.9567 178.259 78.855 174.698 82.2353C170.946 85.7965 170.656 90.2162 172.544 92.432C174.431 94.6478 178.704 95.2142 185.175 90.2917C186.726 89.0893 188.486 88.1826 190.365 87.6168C190.634 87.5373 190.9 87.4678 191.16 87.4042C195.884 86.2774 200.665 87.4757 205.335 88.6502C207.223 89.1272 209.079 89.5942 210.9 89.8942C211.357 89.9698 211.812 90.0353 212.263 90.093C215.727 90.4904 219.02 90.1307 222.068 87.8573C227.497 83.8072 226.623 79.9082 225.198 76.1125C225.135 75.9397 225.067 75.7668 224.999 75.5919L224.801 75.0672L224.753 74.946C224.311 73.8807 223.933 72.7905 223.618 71.6809C223.406 70.9109 223.302 70.1149 223.31 69.3161C223.31 69.181 223.322 69.0478 223.334 68.9186C223.346 68.7895 223.364 68.6384 223.386 68.4993C223.404 68.4 223.42 68.3006 223.441 68.1973L223.571 68.2271L224.236 68.3721C224.214 68.4795 224.197 68.5868 224.181 68.6941C224.159 68.8352 224.143 68.9763 224.135 69.1174C224.135 69.2187 224.135 69.3161 224.135 69.4214C224.119 71.0669 224.803 72.8177 225.526 74.6519C225.637 74.9321 225.747 75.2143 225.856 75.4985C225.921 75.6694 225.987 75.8403 226.055 76.0112C226.122 76.1821 226.176 76.347 226.235 76.516C227.557 80.2659 228.131 84.3736 222.579 88.5151C218.954 91.2197 215.081 91.4006 211.019 90.7488C210.56 90.6752 210.101 90.5918 209.628 90.5004C208.159 90.2062 206.669 89.8326 205.157 89.4511C200.665 88.3223 196.069 87.1677 191.566 88.1713C191.295 88.2329 191.023 88.3024 190.751 88.3799C188.912 88.9068 187.19 89.7795 185.677 90.9515C181.933 93.8052 178.833 94.8883 176.443 94.8883C174.415 94.8883 172.899 94.1112 171.931 92.9725C169.827 90.5023 169.889 85.6951 174.143 81.6451C177.923 78.07 183.752 77.14 188.97 77.1896H188.964ZM243.988 58.4517C244.004 58.5709 244.023 58.6882 244.047 58.8034C240.754 63.0363 236.73 68.0741 233.356 71.679C230.493 70.2493 227.486 69.1294 224.385 68.3384C224.982 66.0013 225.639 64.0459 226.619 63.1079C226.804 63.0741 227.305 63.0165 227.831 62.9548C231.295 62.5554 240.14 61.528 243.994 58.4517H243.988ZM248.244 66.6313C248.376 66.8658 248.548 67.1559 248.769 67.5136L248.984 67.8753C249.095 68.0741 249.212 68.2589 249.329 68.4556C249.347 68.4989 249.371 68.5391 249.401 68.5748C250.911 71.1185 252.835 74.3717 254.455 77.295C255.116 78.4873 255.631 79.4571 256.035 80.248L255.985 80.2878C256.13 80.4726 256.68 81.6451 257.31 83.07C257.35 83.1872 257.378 83.2826 257.398 83.3601C257.177 83.3124 256.515 83.2508 254.115 83.0898C254.115 83.068 254.115 83.0481 254.115 83.0322L254.153 82.7262L253.87 82.6049C253.763 82.5592 243.03 77.9488 239.709 75.5482C237.928 74.2577 236.057 73.0962 234.111 72.0724C237.344 68.6086 241.092 63.9246 244.33 59.7792C244.687 60.7251 245.246 61.5816 245.818 62.458C246.311 63.1777 246.753 63.9314 247.14 64.7136C247.245 64.9183 247.603 65.5383 248.25 66.6313H248.244ZM259.945 50.6557C258.664 53.3067 257.445 55.8226 259.037 59.1055L258.944 59.1274C258.96 59.193 259.341 59.7951 259.808 60.4827C259.657 60.588 259.492 60.7172 259.302 60.8662C257.891 61.9652 254.59 64.5347 248.409 65.2919C248.131 64.8149 247.94 64.4831 247.885 64.3618C247.482 63.5438 247.021 62.7555 246.506 62.003C245.852 60.9994 245.238 60.0574 244.948 58.9843C244.901 58.8129 244.864 58.6391 244.836 58.4636C244.804 58.2664 244.784 58.0672 244.777 57.8675C244.777 57.7522 244.777 57.6349 244.777 57.5157C244.777 57.3726 244.793 57.2256 244.81 57.0745C244.828 56.9235 244.85 56.7884 244.878 56.6413C245.075 55.7474 245.41 54.8898 245.872 54.0996C246.07 53.7419 246.732 53.2172 247.547 52.629L247.883 52.3886L248.213 52.1561L248.598 51.8858C249.133 51.5122 249.705 51.1107 250.281 50.6934C250.556 50.4907 250.829 50.2834 251.102 50.0714L251.17 50.0197L251.474 49.7773C251.581 49.6918 251.686 49.6044 251.79 49.5189L251.957 49.3778L252.1 49.2546C253.292 48.2213 254.343 47.0806 254.898 45.8564C255.183 45.2557 255.328 44.5978 255.321 43.9327C255.273 41.9733 255.917 40.7849 256.513 40.5087C256.627 40.4562 256.753 40.4367 256.877 40.4525C257.001 40.4684 257.118 40.5188 257.215 40.5981C257.218 40.685 257.243 40.7697 257.288 40.844C257.333 40.9182 257.397 40.9793 257.473 41.0214C257.491 41.2579 257.503 41.4447 257.501 41.5083C257.487 42.0647 257.449 42.5933 257.388 43.0981C257.328 43.6016 257.239 44.1012 257.122 44.5945C256.836 45.7709 256.356 46.8913 255.701 47.9092L256.386 48.3484C257.332 46.8781 257.938 45.2156 258.161 43.4816C258.219 43.0842 258.258 42.6549 258.286 42.2197C258.3 41.9932 258.31 41.7626 258.316 41.5261C258.316 41.3274 258.262 40.6219 258.185 39.7158C258.185 39.6482 258.173 39.5806 258.167 39.517C258.332 39.1891 258.612 39.0639 258.904 38.9348C258.998 38.893 259.091 38.8493 259.18 38.7996C259.288 39.0401 259.379 39.2368 259.403 39.3163V39.3302C259.532 39.7277 259.641 40.1053 259.737 40.4789C259.832 40.8525 259.904 41.1883 259.963 41.5341C259.963 41.5659 259.963 41.5997 259.977 41.6315C260.04 42.0073 260.084 42.386 260.108 42.7662C260.176 43.8335 260.086 44.905 259.84 45.9458L260.635 46.1307C261.057 44.3245 261.05 42.4448 260.615 40.6418C260.536 40.2907 260.442 39.9324 260.333 39.5667C260.289 39.4236 260.244 39.2786 260.196 39.1335C260.196 39.1136 260.184 39.0937 260.176 39.0739C260.134 38.9447 259.977 38.591 259.759 38.112V38.0902L259.773 38.0683C259.889 37.8628 260.046 37.683 260.234 37.5397C260.299 37.4873 260.38 37.4579 260.464 37.4562C260.609 37.4562 260.836 37.655 261.033 38.1935C261.174 38.5771 261.297 38.9507 261.406 39.3143C262.942 44.4494 261.356 47.7344 259.945 50.6557ZM228.847 43.4558C228.938 43.3286 229.03 43.2014 229.125 43.0742C229.26 42.8934 229.397 42.7125 229.542 42.5317C231.169 40.4993 233.049 38.6823 235.134 37.1244C235.28 37.0151 235.417 36.9256 235.532 36.8263C235.647 36.7269 235.82 36.6275 235.929 36.5461C236.039 36.4646 236.154 36.401 236.237 36.3473C236.541 36.1645 236.842 35.9949 237.142 35.8386C237.499 36.4877 237.97 37.0673 238.533 37.5496C238.425 37.8179 238.334 38.0703 238.268 38.3108C238.217 38.4916 238.175 38.6625 238.141 38.8275C238.108 39.0439 238.089 39.2623 238.086 39.4813C238.017 40.1582 238.189 40.8378 238.57 41.401C238.686 41.5616 238.819 41.7083 238.968 41.8382C239.086 41.9444 239.212 42.0408 239.345 42.1263C239.413 42.168 239.479 42.2078 239.544 42.2436C239.942 44.0897 241.977 44.8429 243.084 45.2543C243.26 45.3198 243.469 45.3973 243.586 45.453C243.811 47.0607 244.232 47.798 244.755 48.2153C244.881 48.1398 245.013 48.0682 245.152 48.0007C245.293 47.9271 245.44 47.8576 245.589 47.8019H245.609C246.562 47.3974 247.606 47.2577 248.631 47.3977C249.656 47.5376 250.625 47.9519 251.434 48.5968L251.543 48.6863L251.305 48.885L251.229 48.9486C251.122 49.038 251.013 49.1255 250.903 49.2129C250.048 48.5275 248.983 48.1577 247.887 48.1656C247.45 48.1666 247.016 48.2226 246.593 48.3325C246.43 48.3747 246.27 48.4251 246.112 48.4836C246.043 48.5094 245.971 48.5352 245.901 48.5651C245.832 48.5949 245.715 48.6505 245.621 48.6962C244.559 49.2 243.708 50.0619 243.219 51.1306C242.963 51.6762 242.823 52.269 242.808 52.8714C242.793 53.4739 242.904 54.0728 243.133 54.6302C243.369 55.1956 243.724 55.7034 244.175 56.1186C244.133 56.2737 244.099 56.4247 244.071 56.5737C244.043 56.7228 244.018 56.8838 244 57.0328C243.982 57.1818 243.974 57.2892 243.966 57.4143C240.669 60.6476 231.295 61.7386 227.752 62.146C227.024 62.2295 226.659 62.2732 226.456 62.313L226.625 62.2056C226.117 61.35 225.697 60.4451 225.371 59.505C226.339 57.9827 226.838 56.4446 226.235 54.3381C225.288 51.0253 226.082 47.4979 228.59 43.8354C228.668 43.7121 228.757 43.587 228.847 43.4558ZM112.534 66.9632C113.182 67.2613 114.78 70.0971 116.29 72.925L107.631 74.2405L106.745 74.3737C109.094 71.5577 111.127 68.9624 112.534 66.9632ZM113.341 66.5896C113.367 66.1762 112.836 65.5701 111.123 63.7597C110.346 62.937 109.17 61.6909 109.072 61.4008L108.277 61.5379C108.351 61.9692 108.989 62.6806 110.539 64.3201C111.081 64.8924 111.821 65.6734 112.232 66.1802C112.101 66.2337 111.989 66.325 111.91 66.4425C110.3 68.7378 108.035 71.5975 105.539 74.5645C100.571 75.3196 95.5747 76.0768 90.6204 76.8121C91.5683 75.8184 94.2591 72.3785 102.884 60.5165L103.603 59.5228C104.148 58.7816 104.645 58.0443 105.123 57.3368C107.486 53.8273 109.352 51.0571 114.309 51.0571C117.914 51.0571 123.394 58.9545 127.397 64.7215C129.076 67.14 130.555 69.2724 131.733 70.6416C127.047 71.3113 122.164 72.0327 117.152 72.7938C115.32 69.3717 114.183 67.4103 113.341 66.5896ZM132.695 70.5104C131.502 69.2247 129.913 66.9195 128.059 64.2625C123.724 58.0185 118.321 50.2483 114.301 50.2483C108.911 50.2483 106.838 53.3246 104.44 56.8877C103.965 57.5932 103.472 58.3245 102.939 59.0538C102.804 59.2367 102.556 59.5785 102.216 60.0475C92.717 73.1038 90.2309 76.1821 89.8176 76.4643C89.8333 76.4535 89.8508 76.4455 89.8692 76.4404L90.0282 76.9015L86.8983 77.3625C87.6932 76.6113 90.1435 73.5311 99.3326 60.9C99.6684 60.439 99.9129 60.1051 100.046 59.9203L100.614 59.1413C103.724 54.8607 108.404 48.424 113.945 48.424H114.187C120.159 48.6227 127.276 58.7379 131.983 65.427C133.285 67.2772 134.456 68.9365 135.411 70.1269C134.513 70.2541 133.609 70.3793 132.695 70.5104ZM28.3911 100.375C28.3911 100.238 28.3911 100.105 28.4031 99.9657C28.415 99.8266 28.415 99.6935 28.419 99.5683C28.4845 97.9427 28.5958 96.2137 28.7151 94.4172C29.822 94.294 30.7659 94.151 31.6781 94.0099C33.7091 93.6999 35.4638 93.4296 38.3652 93.4872H38.5461C38.6812 93.4872 38.8183 93.4872 38.9535 93.4872H39.3509C46.6183 93.5786 54.627 93.1216 62.4549 92.6466L63.4982 92.583L63.8956 92.5572C71.5784 92.0882 79.5215 91.6033 86.8506 91.6033C87.1626 91.6033 87.9654 91.5794 89.1538 91.5377L90.5727 91.4841C100.161 91.1085 125.064 89.9499 136.377 89.2285C139.11 89.0536 141.049 88.9046 141.789 88.7993C141.877 88.789 141.965 88.773 142.051 88.7516C142.593 88.6065 143.863 88.5946 145.089 88.5826C146.21 88.5826 147.128 88.5548 147.846 88.4932L147.822 88.9284L147.776 89.7373L147.089 101.824H28.3593C28.3633 101.355 28.3752 100.87 28.3911 100.375ZM260.353 58.6186C260.612 58.9177 260.841 59.2419 261.036 59.5864C261.164 59.7852 261.309 60.0137 261.478 60.272C261.537 60.3635 261.696 60.5701 262.024 60.9914C262.509 61.6134 263.566 62.9787 263.878 63.5093L263.628 63.7299C263.542 63.8054 263.457 63.8809 263.381 63.9445C262.883 63.2715 262.385 62.5932 261.885 61.9095C261.686 61.2955 261.199 60.7669 260.77 60.3535C260.757 60.3405 260.742 60.3286 260.726 60.3177L260.671 60.2402C260.371 59.829 260.101 59.3966 259.864 58.9465C260.016 58.8213 260.179 58.7115 260.353 58.6186ZM255.882 28.1081C258.829 28.8573 260.885 30.7432 261.523 33.275C261.832 34.5581 261.791 35.9004 261.404 37.1621C261.304 37.013 261.172 36.8884 261.017 36.7975C260.862 36.7067 260.689 36.652 260.51 36.6375C260.452 36.6326 260.394 36.6326 260.337 36.6375C260.381 36.0075 260.305 35.4173 259.763 34.8966C258.735 33.903 258.256 32.7921 257.833 31.8025C257.128 30.155 256.462 28.599 253.584 28.599H253.421C253.014 28.599 252.414 28.7977 251.831 28.9964C251.506 29.1111 251.174 29.2073 250.838 29.2846C250.482 28.8092 250.032 28.4132 249.514 28.122C251.774 27.6312 253.922 27.6093 255.882 28.1081ZM225.194 53.4736C225.258 53.8415 225.341 54.2057 225.445 54.5646C225.652 55.204 225.723 55.8795 225.655 56.548C225.586 57.2166 225.379 57.8636 225.047 58.4477C224.644 56.9016 224.503 55.0952 225.194 53.4736ZM211.456 49.8727C208.988 52.0746 206.856 53.9744 205.957 55.7232L205.602 56.4167L194.741 51.0631C192.118 49.3242 186.313 45.2523 184.66 43.9705C186.464 43.4598 192.919 42.4025 198.986 41.6434C200.039 41.5122 204.286 40.7134 208.29 39.8092C210.91 39.213 212.662 38.7579 213.855 38.3902C213.968 38.3902 214.085 38.3902 214.207 38.3902C215.119 38.3902 216.241 38.2034 217.386 38.0107C218.332 37.8302 219.289 37.7087 220.25 37.647C220.144 42.1164 215.532 46.238 211.456 49.8727ZM215.767 24.9484L216.087 24.382C216.257 24.0819 216.448 23.7481 216.663 23.3645C218.64 19.8371 219.823 19.4158 223.175 18.8554L223.745 18.762L223.992 18.7203L224.139 18.6984L224.316 18.6726C224.651 18.6226 224.989 18.5967 225.327 18.5951C226.575 18.5951 227.251 18.9925 227.344 19.3542C227.479 19.8828 226.585 20.8188 224.306 21.6237C224.216 21.6542 224.131 21.6977 224.053 21.7528C223.441 21.7866 222.746 21.8363 222.066 21.8999C221.889 21.9158 221.712 21.9337 221.54 21.9536C221.367 21.9734 221.186 21.9933 221.015 22.0132C220.505 22.072 219.999 22.1569 219.499 22.2676C219.435 22.2803 219.374 22.3061 219.321 22.3434C219.268 22.3807 219.223 22.4286 219.189 22.4842C219.237 22.404 219.315 22.3456 219.405 22.3212L219.483 23.132C219.58 23.1271 219.675 23.0969 219.757 23.0446C219.956 23.0009 220.174 22.9591 220.427 22.9194C220.594 22.8935 220.77 22.8677 220.957 22.8439C221.144 22.82 221.305 22.8001 221.488 22.7783C222.796 22.6273 224.11 22.5431 225.427 22.5259C226.222 22.5637 226.42 22.6889 226.456 22.7743C226.569 23.0287 226.277 24.3323 225.065 24.8788C224.757 25.0179 224.511 25.1252 224.31 25.2127C224.016 25.2504 223.515 25.3021 222.998 25.3558L222.505 25.4054C221.359 25.5227 220.353 25.628 219.612 25.7234L219.427 25.7473L219.085 25.7969C218.865 25.8307 218.688 25.8645 218.553 25.8963L218.457 25.9202C218.385 25.9391 218.311 25.9544 218.237 25.9659C217.735 26.0518 217.244 26.189 216.77 26.3752L217.074 27.1304C217.364 27.0145 217.663 26.9221 217.968 26.8542C218.127 26.8164 218.27 26.7906 218.388 26.7687L218.505 26.7449C218.566 26.7343 218.626 26.7204 218.686 26.7031C218.808 26.671 218.932 26.6458 219.057 26.6276C219.829 26.4984 221.391 26.3395 222.589 26.2163L222.921 26.1825L223.33 26.1407C223.369 26.2135 223.425 26.2756 223.493 26.3216L223.505 26.3315C223.503 26.5249 223.451 26.7145 223.354 26.882C223.304 26.9933 223.241 27.1205 223.155 27.2794C222.982 27.5612 222.741 27.795 222.454 27.9591C222.364 28.0161 222.272 28.0685 222.177 28.1161C221.96 28.2271 221.736 28.3234 221.506 28.4042C221.293 28.4817 221.082 28.5493 220.884 28.603C219.834 28.5791 218.424 29.1455 217.253 29.6304L217.122 29.684L216.627 29.8828C216.402 29.9742 216.192 30.0537 216.031 30.1053C215.956 30.132 215.879 30.1513 215.8 30.163H215.707L215.56 30.2484L215.759 30.5843L215.85 30.7472L215.868 30.9698C215.912 30.9698 215.959 30.9579 216.011 30.9479C216.208 30.9041 216.402 30.8442 216.589 30.7691C216.822 30.6816 217.1 30.5704 217.44 30.4273C218.07 30.1669 218.831 29.849 219.544 29.6324C219.601 29.7173 219.679 29.7858 219.771 29.8311C220.186 30.0477 220.168 30.2405 220.168 30.3219C220.049 31.4487 216.498 33.4737 215.751 33.6804C215.055 33.8805 214.418 34.2444 213.893 34.7416C213.539 35.0556 213.272 35.4543 213.116 35.9002C213.078 36.0291 213.063 36.1636 213.072 36.2977C213.075 36.3451 213.081 36.3923 213.092 36.4388C213.014 36.6606 212.979 36.8954 212.99 37.1303C212.907 37.0735 212.827 37.0111 212.752 36.9435C212.644 36.8425 212.547 36.7299 212.464 36.6077C212.37 36.4768 212.292 36.3354 212.231 36.1864C211.577 34.5389 212.78 31.872 213.499 30.2782C213.722 29.7874 213.897 29.3999 213.99 29.1117C214.54 27.4265 214.856 26.6475 215.319 25.7612C215.443 25.5128 215.59 25.2465 215.759 24.9484H215.767ZM234.185 22.4563C234.805 23.6845 232.275 25.5008 230.329 26.7548C231.323 25.165 232.372 23.5434 233.253 22.1682C233.7 22.1225 234.043 22.192 234.177 22.4563H234.185ZM173.279 56.7566C171.272 54.7315 169.688 53.1318 169.257 52.7323C167.118 50.7451 164.062 45.8544 163.962 41.1605C163.909 38.5771 164.757 36.3911 166.472 34.6562C170.725 30.3736 173.116 30.0855 177.879 29.531C179.145 29.382 180.582 29.213 182.251 28.9348C187.263 28.128 203.837 26.1984 214.377 25.793C213.914 26.7859 213.521 27.8106 213.203 28.8593C213.123 29.1037 212.947 29.4933 212.744 29.9424C211.973 31.6554 210.681 34.5131 211.462 36.4884C211.627 36.9048 211.889 37.2759 212.225 37.5715C212.288 37.7058 212.377 37.8266 212.486 37.9272C208.217 39.0918 200.721 40.5961 198.875 40.8266C195.63 41.2241 191.965 41.7666 189.072 42.2555C187.859 42.4542 186.923 42.6311 186.192 42.7781C185.244 42.8835 181.572 43.4876 179.602 44.6839L180.026 45.3795C180.964 44.8111 182.333 44.3858 183.571 44.0858C183.623 44.1752 183.839 44.4832 189.586 48.5134C191.464 49.8329 192.766 50.7312 193.682 51.3433L183.118 66.2736L183.201 66.4485H182.981C180.081 63.6265 175.956 59.4592 173.279 56.7566ZM100.942 41.3453C106.546 35.612 113.406 32.19 119.303 32.19H119.323C123.212 32.19 126.568 33.6228 129.297 36.4308C136.711 44.0619 140.268 49.9283 144.034 56.1385C145.624 58.7736 147.259 61.4565 149.227 64.3857L149 68.3721C145.026 68.8332 140.803 69.3837 136.359 69.9977C135.378 68.8292 134.098 67.0168 132.653 64.96C127.564 57.7303 120.594 47.8298 114.217 47.6112C108.14 47.4124 103.214 54.1691 99.9566 58.6604L99.3902 59.4374C99.2571 59.6182 99.0107 59.9561 98.6768 60.4171C89.1717 73.4834 86.6836 76.5617 86.2703 76.8439C86.2868 76.8345 86.3041 76.8265 86.322 76.82L86.5207 77.4162C81.6598 78.1256 76.8506 78.8073 72.1488 79.4432C79.8355 67.7422 90.6562 51.8719 100.94 41.3453H100.942Z" fill="black"/>
<path d="M255.861 9.9149L257.506 11.1715L258.003 11.5682L258.144 11.6782C258.197 11.7217 258.287 11.7959 258.353 11.8573C258.497 11.9879 258.632 12.1286 258.747 12.2821C258.875 12.4459 259.039 12.6302 259.029 12.8477V12.8452C259.09 13.0601 259.116 13.293 259.062 13.5157C258.96 13.9354 258.671 14.3013 258.307 14.6008L258.154 14.7338L258.021 14.8464C257.931 14.9181 257.839 14.9872 257.747 15.0486C257.732 15.0589 257.732 15.0947 257.711 15.11C257.616 15.1894 257.263 15.4504 257.056 15.6372C256.572 16.0697 256.078 16.4894 255.467 16.7658C255.372 16.8093 254.179 17.6001 253.808 17.1574C253.422 16.6967 254.341 15.6705 254.489 15.5732C254.85 15.3378 255.267 15.1663 255.523 14.8132C255.897 14.2937 256.424 13.9558 256.877 13.531L257.148 13.2853C257.176 13.2598 257.204 13.2367 257.227 13.206C257.279 13.1497 257.276 13.055 257.22 13.0038C257.194 12.9783 257.161 12.9603 257.128 12.9526C257.107 12.945 257.102 12.9527 257.071 12.9373L256.92 12.8477C256.695 12.7095 256.472 12.5688 256.273 12.3999C255.927 12.1107 255.671 11.7089 255.357 11.3813C255.282 11.3045 255.116 11.3071 255.032 11.2252C254.962 11.1587 254.84 11.0538 254.799 10.9539C254.781 10.9104 254.765 10.8618 254.719 10.8541C254.515 10.8132 253.447 9.746 253.9 9.21113C254.341 8.68138 255.382 9.55406 255.861 9.9149Z" fill="black"/>
<path d="M267.183 15.2839C267.06 15.3863 266.607 15.7318 266.335 15.9749C265.703 16.5328 265.061 17.0779 264.298 17.4822C264.181 17.5462 264.007 17.687 263.636 17.2442C263.249 16.781 263.137 16.4176 263.326 16.2871C263.784 15.9698 264.301 15.7139 264.654 15.2788C265.171 14.639 265.839 14.1809 266.435 13.6332C266.568 13.5104 266.704 13.3901 266.842 13.2724L266.924 13.2007C266.937 13.1905 266.947 13.1777 266.957 13.1649C267.003 13.1112 266.97 13.0293 266.914 12.9986C266.909 12.9934 266.901 12.9909 266.893 12.9883C266.888 12.9883 266.881 12.9858 266.85 12.9602L266.663 12.8348L266.233 12.5533C265.946 12.3664 265.665 12.1745 265.404 11.957C264.954 11.5808 264.593 11.092 264.173 10.6799C264.073 10.5827 263.879 10.5597 263.766 10.4573C263.674 10.3728 263.515 10.2372 263.451 10.1195C263.423 10.0683 263.398 10.012 263.344 9.99409C263.096 9.91732 263.177 9.71514 263.661 9.25449C263.766 9.15212 263.871 8.99344 263.981 8.95249C263.986 8.94993 263.994 8.9474 263.999 8.94484C264.391 8.74778 264.414 9.00624 264.559 9.11372C265.281 9.64603 265.98 10.2116 266.686 10.7644L267.331 11.2814C267.438 11.3658 267.549 11.4503 267.661 11.5296C267.774 11.6141 267.881 11.6755 268.063 11.8213C268.275 11.9954 268.539 12.1873 268.613 12.4637L268.611 12.4586C268.754 12.7145 268.849 13.0165 268.805 13.3133C268.772 13.5948 268.657 13.8636 268.48 14.0965C268.393 14.2142 268.288 14.3242 268.178 14.4266L267.935 14.6441C267.705 14.8463 267.474 15.0408 267.239 15.2071C267.216 15.2225 267.208 15.2634 267.183 15.2839Z" fill="black"/>
<path d="M277.026 15.3061C276.929 15.3854 276.571 15.6541 276.359 15.8435C275.865 16.2863 275.36 16.7137 274.736 17.0003C274.639 17.0463 274.503 17.1564 274.132 16.7137C273.746 16.253 273.607 15.9075 273.758 15.8103C274.127 15.5697 274.549 15.3931 274.813 15.0323C275.197 14.5051 275.734 14.1596 276.197 13.7245L276.356 13.5812L276.374 13.5633L276.376 13.5607L276.384 13.553L276.397 13.5403C276.415 13.5224 276.435 13.507 276.451 13.4865C276.486 13.4456 276.461 13.379 276.412 13.356C276.389 13.3432 276.361 13.3381 276.338 13.3406C276.333 13.3406 276.335 13.3432 276.328 13.3406L276.284 13.3151L276.197 13.2613L276.026 13.1564C275.795 13.0156 275.57 12.8698 275.366 12.6983C275.012 12.4014 274.751 11.9945 274.429 11.6618C274.352 11.5825 274.183 11.5825 274.099 11.5006C274.027 11.4315 273.904 11.324 273.861 11.2242C273.843 11.1807 273.825 11.1321 273.781 11.1218C273.572 11.0783 273.666 10.8839 274.135 10.413C274.237 10.308 274.347 10.1519 274.444 10.1033C274.449 10.1007 274.457 10.0956 274.462 10.0956C274.823 9.87298 274.815 10.1084 274.933 10.1903C275.506 10.6023 276.054 11.0451 276.612 11.475L277.119 11.8794C277.203 11.9459 277.287 12.0099 277.38 12.0739C277.538 12.1916 277.7 12.3093 277.845 12.4449C278.004 12.5882 278.204 12.7418 278.232 12.9542V12.9516C278.329 13.1487 278.406 13.3739 278.378 13.6017C278.337 14.0316 278.101 14.4053 277.73 14.72L277.487 14.9299L277.351 15.0425C277.259 15.1167 277.167 15.1858 277.073 15.2498C277.05 15.2549 277.047 15.2908 277.026 15.3061Z" fill="black"/>
<path d="M7.58828 11.9284C7.5332 11.2402 7.38937 11.2463 7.30062 11.2188C6.76394 11.0788 6.20327 11.0569 5.65729 11.1545C5.42165 11.1851 5.04525 11.182 4.95038 11.1882C4.92896 11.1882 4.9106 11.2218 4.89836 11.2188C4.75881 11.2081 4.61866 11.2081 4.47911 11.2188C4.45463 11.0505 4.44239 10.8823 4.42097 10.711C4.35364 10.2369 4.30774 9.75971 4.20981 9.28559C4.19145 9.19077 4.40567 9.07454 3.90379 9.02254H3.88237C3.70818 9.00948 3.53327 9.00948 3.35908 9.02254C2.56955 9.04701 2.32167 9.10513 2.44102 9.22137C2.46856 9.2489 2.44101 9.2795 2.41653 9.31008C2.37433 9.38662 2.3552 9.47372 2.36145 9.56089C2.36145 9.64348 2.49303 9.71996 2.48385 9.79643C2.40114 10.1102 2.34585 10.4305 2.3186 10.7538C2.36102 11.0405 2.4349 11.3215 2.53893 11.5919C2.3798 11.6103 2.23291 11.6195 2.06153 11.6409C1.48621 11.7113 0.910908 11.7663 0.335588 11.8703C0.2193 11.8887 0.0846511 11.6776 0.011206 12.1762C0.011206 12.1762 0.011206 12.1945 0.011206 12.1976C-0.00373533 12.3716 -0.00373533 12.5466 0.011206 12.7206C0.011206 13.5129 0.0846422 13.7576 0.231532 13.6383C0.262135 13.6107 0.30191 13.6383 0.338633 13.6628C0.435286 13.7032 0.540203 13.72 0.644654 13.7117C0.745641 13.7117 0.840508 13.5802 0.932315 13.5863C1.31234 13.6671 1.69807 13.7182 2.08602 13.7392C2.32723 13.7157 2.56524 13.6665 2.79599 13.5924C2.80786 13.8315 2.86825 14.0657 2.97349 14.2807C3.12344 14.5621 2.97348 14.874 2.94288 15.1738C2.94288 15.2992 3.35295 15.342 4.0721 15.2839C4.79125 15.2258 4.75453 15.1065 4.78207 15.0331C4.92895 14.5935 4.95746 14.123 4.8647 13.6689C4.85533 13.5365 4.85431 13.4037 4.86164 13.2712C5.35739 13.2039 5.86232 13.2468 6.34584 13.0296C6.69164 12.8736 7.065 13.0112 7.4261 13.0296C7.58217 13.0724 7.64337 12.6595 7.58828 11.9284Z" fill="black"/>
<path d="M9.88951 25.6442C9.84973 24.9529 9.74568 24.956 9.67836 24.9254C9.30521 24.7659 8.8935 24.7191 8.49406 24.7908C8.46809 24.751 8.44557 24.7091 8.42674 24.6654C8.36023 24.3643 8.33245 24.0559 8.34411 23.7478C8.31657 23.2461 8.30739 22.7445 8.24924 22.2428C8.24924 22.1419 8.4604 22.0379 7.97994 21.9369H7.95852C7.78611 21.914 7.61215 21.9048 7.43828 21.9094C6.64568 21.8666 6.39475 21.9094 6.52022 22.0379C6.54776 22.0685 6.52022 22.0991 6.48656 22.1296C6.43984 22.2073 6.4145 22.296 6.41312 22.3866C6.41312 22.4723 6.53245 22.564 6.51715 22.6405C6.40962 22.9626 6.32877 23.2931 6.2754 23.6285C6.3173 24.0122 6.38167 24.3932 6.4682 24.7694C6.4682 24.8734 6.4682 24.9774 6.48656 25.0753C6.27098 25.1212 6.0519 25.1488 5.83167 25.1579C5.4063 25.2068 4.98094 25.2405 4.55863 25.3169C4.46988 25.3353 4.37194 25.1181 4.31686 25.6014C4.31537 25.6085 4.31537 25.6158 4.31686 25.6228C4.3047 25.7959 4.3047 25.9697 4.31686 26.1428C4.31686 26.935 4.36889 27.1828 4.47906 27.0604C4.50048 27.0329 4.52802 27.0605 4.55556 27.088C4.62157 27.1317 4.69986 27.1532 4.77895 27.1492C4.8524 27.1492 4.92278 27.0238 4.99011 27.036C5.26812 27.1279 5.5539 27.1945 5.84392 27.2348C6.08947 27.2044 6.33011 27.1427 6.56 27.0513C6.57797 27.1473 6.6046 27.2415 6.63957 27.3327C6.7681 27.6386 6.60284 27.9444 6.53858 28.2503C6.51409 28.3788 6.93335 28.4583 7.6525 28.4583C8.37165 28.4583 8.35023 28.3329 8.38389 28.2565C8.56436 27.8087 8.63061 27.323 8.57669 26.8433V26.8188C8.71814 26.8014 8.85511 26.7578 8.98064 26.6903C9.23464 26.5496 9.51005 26.6904 9.77935 26.7485C9.8834 26.7852 9.9293 26.363 9.88951 25.6442Z" fill="black"/>
<path d="M19.4403 17.7552C19.3577 17.0701 19.2139 17.0823 19.1343 17.0609C18.5901 16.94 18.026 16.94 17.4818 17.0609C17.2492 17.0976 16.8697 17.1098 16.7749 17.119C16.7535 17.119 16.7351 17.1557 16.7229 17.1557C16.5713 17.1523 16.4197 17.1625 16.27 17.1863C16.2026 16.7489 16.1475 16.3084 16.0496 15.8741C16.0282 15.7792 16.2393 15.66 15.7436 15.6171H15.7222C15.5484 15.6127 15.3745 15.6208 15.2019 15.6416C14.4124 15.6813 14.1645 15.7395 14.2839 15.8557C14.3114 15.8832 14.2839 15.9138 14.2594 15.9475C14.2201 16.0249 14.2031 16.1117 14.2104 16.1983C14.2104 16.2809 14.3451 16.3543 14.3389 16.4307C14.2596 16.7456 14.2095 17.0671 14.189 17.3912C14.1961 17.4834 14.2125 17.5746 14.238 17.6635L13.8952 17.7124C13.323 17.8072 12.7446 17.8837 12.1723 18.0183C12.056 18.0458 11.9122 17.8378 11.8663 18.3242C11.8663 18.3242 11.8663 18.3425 11.8663 18.3456C11.8599 18.5204 11.8691 18.6955 11.8938 18.8686C11.9367 19.6578 12.0101 19.9025 12.1509 19.7679C12.1815 19.7373 12.2213 19.7679 12.258 19.7863C12.3554 19.8236 12.4605 19.8363 12.564 19.823C12.6619 19.823 12.7538 19.6823 12.8456 19.6884C13.2313 19.7511 13.6209 19.7868 14.0115 19.7954C14.2336 19.7646 14.452 19.7113 14.6633 19.6364C14.7398 20.0555 14.6909 20.4868 14.9143 20.8905C15.0703 21.1689 14.9357 21.4839 14.9143 21.7867C14.9143 21.9091 15.3274 21.9458 16.0435 21.8724C16.7596 21.799 16.7229 21.6827 16.7504 21.6093C16.8882 21.1674 16.9082 20.6972 16.8085 20.2451C16.7779 20.0524 16.781 19.7465 16.7749 19.6609C16.7749 19.6425 16.7382 19.6303 16.7412 19.618C16.7549 19.491 16.7549 19.3628 16.7412 19.2357C17.2523 19.1378 17.7786 19.1684 18.2713 18.9298C18.611 18.7616 18.9905 18.8809 19.3577 18.9023C19.4801 18.8992 19.526 18.471 19.4403 17.7552Z" fill="black"/>
<path d="M18.9814 3.39438C18.9325 2.70308 18.8253 2.70921 18.758 2.67862C18.3692 2.52492 17.9444 2.48565 17.5339 2.56545C17.484 2.56878 17.4339 2.56878 17.384 2.56545C17.384 2.43698 17.3656 2.30851 17.3534 2.1831C17.2891 1.62333 17.2463 1.06358 17.1545 0.506872C17.1361 0.393696 17.3503 0.265226 16.8484 0.200991H16.827C16.6529 0.187153 16.4779 0.187153 16.3037 0.200991C15.5111 0.200991 15.2633 0.262178 15.3857 0.402883C15.4132 0.433471 15.3857 0.470167 15.3581 0.506872C15.3137 0.602393 15.2947 0.707754 15.303 0.812754C15.303 0.907577 15.4346 1.00547 15.4255 1.09112C15.3395 1.45839 15.2812 1.83156 15.251 2.20755C15.2717 2.45081 15.32 2.69096 15.3948 2.92334C15.2082 2.96311 15.0184 2.96616 14.8318 2.99063C14.4003 3.04569 13.9657 3.08238 13.5373 3.16803C13.4485 3.16803 13.3445 2.96922 13.2925 3.45251C13.294 3.45957 13.294 3.46685 13.2925 3.47391C13.2808 3.64704 13.2808 3.82079 13.2925 3.99393C13.2925 4.78616 13.3567 5.03393 13.4669 4.91157C13.4883 4.88404 13.5189 4.91156 13.5465 4.93909C13.6139 4.982 13.6932 5.00234 13.7729 4.99719C13.8464 4.99719 13.9198 4.87178 13.9871 4.88096C14.2703 4.97047 14.5613 5.03298 14.8562 5.06758C15.1266 5.02926 15.3916 4.95944 15.6458 4.85956C15.71 5.35203 15.6458 5.8506 15.8661 6.33389C16.0161 6.67036 15.8661 7.02826 15.8324 7.38002C15.8141 7.52378 16.2395 7.59109 16.9586 7.54521C17.6778 7.49933 17.6441 7.36168 17.6716 7.27603C17.8214 6.75847 17.8538 6.21402 17.7665 5.68236C17.742 5.45601 17.7512 5.09814 17.7451 5.00025C17.7451 4.97884 17.7114 4.96051 17.7145 4.94522C17.7237 4.83529 17.7237 4.72476 17.7145 4.61484C17.8281 4.592 17.9375 4.55179 18.0389 4.49558C18.299 4.35181 18.5805 4.49555 18.8529 4.54449C18.9875 4.53532 19.0304 4.1132 18.9814 3.39438Z" fill="black"/>
<path d="M31.3077 11.1974C31.1761 10.5153 31.0752 10.5336 31.0017 10.5091C30.6131 10.3998 30.2006 10.4094 29.8174 10.5367C29.6552 10.5765 29.389 10.5948 29.3155 10.6071C29.3155 10.6071 29.2941 10.6407 29.2819 10.6407C29.1444 10.6412 29.0075 10.6596 28.8749 10.6957C28.8412 10.5611 28.8229 10.4266 28.7892 10.295C28.6974 9.90658 28.6209 9.51503 28.4832 9.13268C28.4587 9.05621 28.6637 8.93692 28.1771 8.94304H28.1557C27.9823 8.9567 27.8097 8.97915 27.6385 9.01032C26.8551 9.11432 26.6134 9.18776 26.748 9.27035C26.7756 9.2887 26.748 9.31929 26.7266 9.34682C26.6919 9.41246 26.679 9.48746 26.6899 9.56092C26.6899 9.62822 26.8307 9.68021 26.8245 9.74138C26.7626 10.0085 26.7268 10.281 26.7174 10.555C26.79 10.8159 26.8927 11.0673 27.0234 11.3044C26.7174 11.3809 26.4114 11.4513 26.1054 11.5522C26.0258 11.5797 25.9004 11.3779 25.9095 11.8581V11.8795C25.9239 12.0521 25.9484 12.2237 25.983 12.3934C26.0993 13.1764 26.1758 13.4181 26.2614 13.2805C26.2829 13.2499 26.3135 13.2804 26.341 13.2988C26.4098 13.3342 26.4883 13.3461 26.5644 13.3324C26.6348 13.3324 26.6868 13.1887 26.7511 13.1917C26.999 13.1917 27.2591 13.2927 27.5008 13.2835L27.5682 13.3906C27.7365 13.6077 27.6141 13.883 27.5927 14.1369C27.5927 14.2409 28.0088 14.2317 28.7188 14.1063C29.4288 13.9809 29.389 13.8892 29.4104 13.8249C29.5271 13.4609 29.5271 13.0695 29.4104 12.7054L29.4624 12.6901C29.8235 12.583 30.2061 12.6106 30.5396 12.3597C30.7661 12.1854 31.0507 12.3016 31.3139 12.3169C31.4546 12.3292 31.4424 11.904 31.3077 11.1974Z" fill="black"/>
<path d="M28.1192 25.3442C27.7089 25.1559 27.2553 25.0819 26.8064 25.1301C26.6166 25.1301 26.3228 25.1025 26.2371 25.0995C26.2371 25.0995 26.2035 25.1301 26.1912 25.127C25.9391 25.0886 25.683 25.0824 25.4293 25.1086C25.4293 24.6039 25.4568 24.0992 25.4293 23.5792C25.4293 23.463 25.6527 23.3621 25.1783 23.2244H25.16C24.9886 23.1891 24.8146 23.1676 24.6397 23.1602C23.8532 23.0653 23.6023 23.0929 23.7217 23.2489C23.7461 23.2856 23.7217 23.3192 23.6849 23.3498C23.6313 23.4356 23.5997 23.5333 23.5931 23.6343C23.5931 23.7291 23.6972 23.8423 23.6788 23.9402C23.5497 24.2981 23.4474 24.6652 23.3728 25.0383C23.3665 25.1401 23.3665 25.2423 23.3728 25.3442C23.0851 25.3442 22.7975 25.3656 22.5098 25.3962C22.4149 25.3962 22.3231 25.1851 22.2252 25.6623C22.2252 25.6623 22.2252 25.6623 22.2252 25.6837C22.2 25.8558 22.1887 26.0298 22.1915 26.2037C22.1426 26.9929 22.1732 27.2437 22.2986 27.1214C22.3262 27.0969 22.3537 27.1214 22.3843 27.1581C22.4548 27.2038 22.5361 27.2302 22.62 27.2345C22.6995 27.2345 22.7883 27.1183 22.8587 27.1336C23.0576 27.1764 23.2534 27.2651 23.4524 27.3263C23.4524 27.4517 23.4524 27.5771 23.4524 27.7025C23.4524 28.2134 23.333 28.7181 23.486 29.2319C23.5931 29.5898 23.4065 29.9293 23.3208 30.278C23.284 30.4187 23.7002 30.538 24.4194 30.5839C25.1385 30.6298 25.1202 30.486 25.16 30.4035C25.374 29.9047 25.4733 29.3643 25.4507 28.822C25.4507 28.5926 25.5088 28.2347 25.518 28.1338C25.518 28.1154 25.4874 28.0941 25.4904 28.0788C25.5415 27.788 25.563 27.4929 25.5547 27.1978C25.6955 27.1978 25.8363 27.1978 25.974 27.1978C26.3963 27.1642 26.8155 27.2651 27.2378 27.0877C27.5255 26.9623 27.8132 27.1336 28.1008 27.2009C28.2202 27.2284 28.3028 26.8094 28.312 26.0905C28.3212 25.3717 28.2018 25.3778 28.1192 25.3442Z" fill="black"/>
<path d="M38.9921 21.1079C38.686 20.4961 38.5881 20.5267 38.5147 20.5206C38.0946 20.5158 37.678 20.597 37.2906 20.7592C37.1211 20.8058 36.9482 20.8385 36.7734 20.8571C36.7734 20.8571 36.7489 20.8938 36.7367 20.8938C36.5718 20.8977 36.4078 20.9182 36.247 20.9549C36.1828 20.4808 36.1338 20.0036 36.042 19.5326C36.0206 19.4316 36.2348 19.3124 35.736 19.2542H35.7146C35.5414 19.2412 35.3675 19.2412 35.1943 19.2542C34.4017 19.2757 34.1539 19.3337 34.2763 19.4561C34.3038 19.4836 34.2763 19.5173 34.2518 19.5479C34.2101 19.6278 34.192 19.718 34.1998 19.8079C34.1998 19.8935 34.3314 19.9731 34.3222 20.0526C34.2391 20.3777 34.1839 20.7092 34.1569 21.0436C34.1628 21.1012 34.172 21.1584 34.1845 21.2149C33.8784 21.1935 33.5724 21.1568 33.2664 21.1232C33.1746 21.1232 33.147 20.8754 32.9359 21.3189V21.3373C32.8689 21.4982 32.8136 21.6638 32.7706 21.8328C32.5136 22.5822 32.4646 22.833 32.6544 22.7504C32.6941 22.7321 32.7186 22.7719 32.7431 22.8055C32.8134 22.8757 32.9028 22.9235 33.0002 22.9431C33.0889 22.9737 33.2144 22.8667 33.3062 22.8973C33.6339 23.0738 33.9838 23.2055 34.3466 23.2888C34.4292 23.2949 34.512 23.2949 34.5945 23.2888C34.5945 23.3071 34.5945 23.3255 34.5945 23.3439C34.671 23.7874 34.5945 24.2401 34.8302 24.6714C34.9801 24.9773 34.8302 25.2831 34.8026 25.589C34.8026 25.7175 35.2127 25.7634 35.9319 25.7053C36.651 25.6471 36.6143 25.5248 36.6418 25.4483C36.7878 24.9927 36.8152 24.5073 36.7214 24.0382C36.6969 23.8363 36.703 23.5213 36.6969 23.4264C36.6969 23.4081 36.6632 23.3928 36.6632 23.3806C36.677 23.2453 36.677 23.109 36.6632 22.9737C36.7459 22.9737 36.8285 22.9432 36.908 22.9218C37.3793 22.7994 37.8873 22.7719 38.2913 22.4415C38.5636 22.2182 38.9309 22.2549 39.2675 22.1693C39.4082 22.1693 39.3103 21.7533 38.9921 21.1079Z" fill="black"/>
<path d="M55.7683 47.172C55.5633 46.5113 55.4103 46.5603 55.3124 46.5603C54.7193 46.5465 54.1278 46.6249 53.5589 46.7927C53.314 46.8478 52.9193 46.8845 52.8091 46.8968C52.7877 46.8968 52.7693 46.9335 52.754 46.9335C52.6097 46.9382 52.4656 46.9505 52.3225 46.9702C52.3042 46.8111 52.295 46.6643 52.2766 46.493C52.2093 45.9424 52.1603 45.3918 52.0655 44.8443C52.0471 44.7342 52.2583 44.6057 51.7595 44.5384H51.738C51.5649 44.5247 51.3909 44.5247 51.2178 44.5384C50.4252 44.5384 50.1773 44.6088 50.2997 44.7464C50.3273 44.777 50.2997 44.8137 50.2753 44.8504C50.2339 44.9404 50.215 45.0391 50.2202 45.1379C50.2202 45.2297 50.3518 45.3245 50.3456 45.4101C50.2617 45.7724 50.2055 46.1406 50.1773 46.5113C50.2096 46.7956 50.2722 47.0755 50.364 47.3464C50.1437 47.3617 49.9233 47.3617 49.703 47.3678C49.0757 47.3861 48.4483 47.3678 47.8148 47.3403C47.6833 47.3403 47.5884 47.1017 47.4017 47.5605V47.5819C47.3484 47.748 47.3125 47.9192 47.2946 48.0927C47.1293 48.8697 47.1416 49.1236 47.3436 49.0287C47.3864 49.0073 47.4231 49.0471 47.4629 49.0777C47.5676 49.1398 47.6846 49.1784 47.8057 49.1909C47.922 49.2123 48.0597 49.096 48.1637 49.1205C48.602 49.2641 49.0528 49.3665 49.5102 49.4264C49.8888 49.4209 50.2656 49.3727 50.6333 49.2826C50.6266 49.7157 50.6971 50.1466 50.8414 50.5551C50.9913 50.8824 50.8414 51.2403 50.8138 51.5859C50.7985 51.7297 51.2239 51.7878 51.9431 51.7358C52.6622 51.6838 52.6255 51.5492 52.653 51.4666C52.8003 50.9568 52.8286 50.4199 52.7357 49.8974C52.7112 49.6741 52.7173 49.3224 52.7112 49.2215C52.7112 49.2 52.6775 49.1847 52.6775 49.1694C52.6775 49.1541 52.6775 49.0685 52.6775 49.0196H52.7418C53.3538 48.8972 53.9659 48.8819 54.5442 48.5638C54.9237 48.3436 55.3766 48.3986 55.8051 48.3374C55.9978 48.2946 55.9825 47.8603 55.7683 47.172Z" fill="black"/>
<path d="M65.209 55.1006C64.955 54.4583 64.8449 54.4889 64.7714 54.4889C64.3301 54.4587 63.8871 54.5106 63.4647 54.6418C63.2819 54.676 63.0967 54.6954 62.9108 54.6999C62.8955 54.6999 62.8832 54.7336 62.871 54.7336C62.6083 54.7303 62.3456 54.7436 62.0845 54.7734C62.0845 54.6724 62.0845 54.5715 62.0845 54.4675C62.0478 54.027 62.0264 53.5896 61.9591 53.1522C61.9591 53.0635 62.1672 52.9686 61.6836 52.8952H61.6622C61.489 52.8838 61.3152 52.8838 61.142 52.8952C60.3494 52.8952 60.1015 52.9197 60.2239 53.0329C60.2515 53.0573 60.2239 53.0849 60.1933 53.1124C60.1479 53.179 60.1244 53.2581 60.126 53.3387C60.126 53.4152 60.2484 53.4917 60.2331 53.559C60.1319 53.841 60.0571 54.1318 60.0097 54.4277C60.0159 54.5562 60.0375 54.6836 60.074 54.807C59.7955 54.755 59.517 54.6938 59.2385 54.6296C59.1406 54.6051 59.1375 54.3665 58.8744 54.7794L58.8591 54.7978C58.7745 54.9505 58.7009 55.1089 58.6387 55.2719C58.299 55.9877 58.244 56.2355 58.4337 56.1896C58.4735 56.1896 58.4949 56.2202 58.5194 56.2569C58.5867 56.3356 58.6746 56.3938 58.7734 56.4251C58.8621 56.4648 59.0029 56.3761 59.0794 56.4251C59.4058 56.6411 59.7599 56.8119 60.1321 56.9329C60.1916 56.9457 60.2519 56.9539 60.3127 56.9573C60.3005 57.2052 60.3466 57.4524 60.4473 57.6792C60.582 57.9453 60.4228 58.2237 60.3647 58.4959C60.3402 58.6091 60.7625 58.6703 61.4847 58.6519C62.2069 58.6336 62.1763 58.5234 62.21 58.4592C62.3813 58.0691 62.4376 57.6383 62.3722 57.2173C62.3661 57.1042 62.3661 56.9909 62.3722 56.8778C62.5341 56.8743 62.6957 56.86 62.8557 56.835C63.3606 56.7524 63.8962 56.7646 64.3552 56.4618C64.6612 56.2568 65.0438 56.318 65.4018 56.2538C65.5395 56.1926 65.4753 55.7705 65.209 55.1006Z" fill="black"/>
<path d="M73.3094 46.1839C73.2757 45.4927 73.1135 45.4988 73.0186 45.4682C72.4191 45.3149 71.7955 45.2796 71.1825 45.3642C70.9193 45.3856 70.5093 45.3642 70.393 45.3642C70.3685 45.3642 70.3471 45.3948 70.3318 45.3948C70.1698 45.3826 70.0072 45.3826 69.8452 45.3948C69.8207 45.2938 69.7748 45.1929 69.7412 45.0889C69.7871 44.9635 69.6708 44.8626 69.631 44.7494C69.5154 44.3384 69.4385 43.9175 69.4015 43.4922C69.2913 42.804 69.2026 42.1157 69.0648 41.4336C69.0373 41.2929 69.2393 41.1277 68.7588 41.0512H68.7374C68.5627 41.0395 68.3873 41.0467 68.2141 41.0727C67.4215 41.1063 67.1798 41.1859 67.3205 41.3541C67.3511 41.3939 67.3205 41.4397 67.3022 41.4826C67.2664 41.6004 67.256 41.7244 67.2716 41.8466C67.2716 41.9628 67.4154 42.076 67.4154 42.183C67.3592 42.6417 67.3316 43.1035 67.3328 43.5656C67.3879 44.0917 67.6082 44.5934 67.7092 45.1134C67.749 45.3152 67.7765 45.5202 67.801 45.7251C67.599 45.7251 67.394 45.7496 67.1889 45.768C66.5432 45.8261 65.8975 45.8658 65.2549 45.9545C65.1233 45.9545 64.9795 45.7557 64.8785 46.2421C64.8785 46.2421 64.8785 46.2574 64.8785 46.2635C64.8609 46.4364 64.8609 46.6106 64.8785 46.7835C64.8601 47.5757 64.9213 47.8235 65.0866 47.7011C65.1233 47.6736 65.1661 47.7011 65.2059 47.7287C65.3118 47.7714 65.4254 47.7912 65.5395 47.7868C65.6497 47.7868 65.7629 47.6583 65.8639 47.6675C66.2866 47.7571 66.715 47.8175 67.1461 47.848C67.4627 47.824 67.7763 47.7697 68.0825 47.6858C68.1142 48.0091 68.1915 48.3263 68.312 48.6279C68.4895 49.0348 68.3763 49.4844 68.3641 49.9188C68.3641 50.0993 68.7894 50.1635 69.5025 50.0778C70.2155 49.9922 70.1757 49.827 70.1971 49.72C70.3046 49.0686 70.2921 48.4031 70.1604 47.7562C70.1604 47.6705 70.1359 47.5727 70.1268 47.4717H70.1726C70.7541 47.4014 71.3386 47.4717 71.9139 47.2576C72.3026 47.1108 72.7157 47.2576 73.1196 47.3004C73.2573 47.328 73.343 46.9181 73.3094 46.1839Z" fill="black"/>
</svg>
