<svg width="236" height="123" viewBox="0 0 236 123" fill="none" xmlns="http://www.w3.org/2000/svg">
<path d="M215.753 86.2423L215.734 86.2193C218.478 83.5257 220.799 80.5344 222.517 77.3197L222.517 77.3188C224.244 74.1192 225.403 70.6551 225.996 67.0801C227.098 59.9143 225.914 52.4039 222.971 45.5033C221.241 41.5179 218.917 37.7303 216.074 34.3095C213.238 30.9027 209.806 27.7647 206.066 25.0145C198.546 19.4926 189.6 15.4445 180.15 12.7126L180.15 12.7125C170.677 9.95901 160.713 8.60319 150.594 8.19786L150.594 8.19785C140.474 7.78514 130.236 8.30829 119.983 9.24508L119.982 9.24522C118.939 9.33403 117.773 9.45095 116.551 9.57346C114.034 9.8258 111.281 10.1018 108.884 10.2045C107.103 10.2807 105.497 10.2628 104.313 10.0636C103.723 9.96433 103.218 9.81684 102.846 9.59962C102.469 9.3797 102.203 9.07055 102.161 8.6518L102.161 8.6509C102.086 7.87331 102.563 7.14986 103.392 6.50111C104.227 5.84742 105.471 5.22586 107.065 4.64995C110.256 3.4965 114.91 2.51182 120.649 1.94967L120.649 1.94964C134.505 0.612791 148.728 0.153852 162.797 1.83205C169.847 2.62352 176.805 4.06568 183.57 6.00277L183.574 6.004C186.93 7.02996 190.286 8.10991 193.528 9.44984C194.695 9.88594 195.834 10.3942 196.962 10.8983C197.426 11.1055 197.888 11.3119 198.35 11.5124L198.357 11.5153C198.974 11.8047 199.587 12.1078 200.195 12.409C200.366 12.4932 200.535 12.5773 200.705 12.6608C201.482 13.0365 202.276 13.4231 203.037 13.8551C212.019 18.6368 220.097 25.0958 225.842 33.208C231.544 41.26 234.901 50.6434 235.226 60.2617C235.385 65.0642 234.751 69.9355 233.2 74.6006M215.753 86.2423L31.3119 107.337C35.19 109.285 39.2006 110.968 43.2858 112.4L43.2024 112.636C43.2025 112.636 43.2026 112.636 43.2026 112.636C51.3898 115.535 59.8652 117.546 68.4204 118.92L68.4207 118.92C76.8979 120.272 85.4492 121.188 94.0247 121.728L94.0249 121.728C112.288 122.865 130.685 122.149 148.759 119.534C157.791 118.226 166.741 116.445 175.542 114.185C184.308 111.939 193.099 109.219 201.429 105.394C206.063 103.271 210.568 100.814 214.759 97.8881C218.952 94.9762 222.799 91.5508 225.981 87.6253C229.164 83.7215 231.665 79.274 233.2 74.6006M215.753 86.2423L214.528 87.6117C214.527 87.6128 214.526 87.6139 214.525 87.615C214.078 88.0772 213.59 88.5126 213.087 88.9454C208.092 93.138 202.042 96.4622 195.634 99.2242C189.185 101.964 182.369 104.145 175.334 105.958L175.332 105.959C161.311 109.711 146.849 112.115 132.27 113.361C124.602 113.977 116.913 114.426 109.201 114.46L109.196 114.423C107.377 114.364 105.564 114.315 103.757 114.266C98.1809 114.115 92.6554 113.965 87.1418 113.509L87.1394 113.509C84.1966 113.294 81.2602 112.946 78.3181 112.597C77.937 112.552 77.5558 112.507 77.1746 112.462C76.0801 112.325 74.9918 112.163 73.899 112.001C73.3398 111.918 72.7795 111.834 72.2165 111.754C72.2163 111.754 72.2161 111.754 72.216 111.754L69.7455 111.386L69.7399 111.385L67.303 110.966C67.3026 110.966 67.3022 110.965 67.3018 110.965C60.8085 109.794 54.4158 108.181 48.2725 106.074C42.1288 103.968 36.229 101.355 30.8776 98.1256L30.8775 98.1256C25.5345 94.9039 20.753 91.0324 17.1049 86.4921L17.1035 86.4904C14.1007 82.8192 11.9537 78.6721 10.6868 74.3127C9.46333 69.9896 9.29022 65.4371 10.0632 60.9695C10.8362 56.5011 12.5477 52.1236 14.9783 48.0578C17.41 43.9977 20.5102 40.2079 24.1473 36.8728C27.7861 33.5363 31.9031 30.6115 36.3991 28.2675C38.6525 27.106 40.9611 26.0707 43.3997 25.2194C43.8503 25.0695 44.2915 24.9138 44.7297 24.7592C45.5167 24.4815 46.2941 24.2072 47.0994 23.976C47.0997 23.9759 47.1 23.9758 47.1003 23.9757L50.8899 22.9218C61.0985 20.4064 71.9408 19.9491 82.6584 20.8625L82.6604 20.8626C86.2452 21.1397 89.9231 21.8264 93.579 22.509C94.3851 22.6595 95.1901 22.8098 95.9928 22.9555M215.753 86.2423L26.7617 25.3176C29.9389 23.3099 33.3075 21.5542 36.8507 20.0799L36.8523 20.0793C37.7418 19.7165 38.6391 19.376 39.533 19.0369L39.5345 19.0363L39.5447 19.0325L39.5447 19.0327L42.243 18.1407C43.5484 17.6704 44.8979 17.3128 46.2363 16.9581C46.735 16.8259 47.2322 16.6942 47.7249 16.5572M233.2 74.6006C233.2 74.6004 233.2 74.6003 233.2 74.6001L232.963 74.5221L233.2 74.601C233.2 74.6009 233.2 74.6007 233.2 74.6006ZM95.9928 22.9555C95.9927 22.9555 95.9926 22.9554 95.9925 22.9554L96.0374 22.7095L95.9928 22.9555ZM95.9928 22.9555C96.3338 23.0178 96.675 23.0805 97.0161 23.1433C101.105 23.8951 105.194 24.6468 109.045 24.7305M109.045 24.7305C110.482 24.9177 111.121 24.7612 111.526 24.4312C111.623 24.3522 111.701 24.2682 111.768 24.1903C111.797 24.1554 111.823 24.1251 111.846 24.0966C111.88 24.0552 111.911 24.0177 111.949 23.9758C112.06 23.8536 112.181 23.7497 112.393 23.6768M109.045 24.7305C109.049 24.7306 109.054 24.7307 109.058 24.7308L109.064 24.4809L109.031 24.7287C109.036 24.7293 109.04 24.7299 109.045 24.7305ZM112.393 23.6768C112.393 23.6767 112.393 23.6767 112.393 23.6766L112.312 23.4402L112.392 23.6771C112.392 23.677 112.392 23.6769 112.393 23.6768ZM112.393 23.6768C113.003 23.4714 113.507 23.2618 113.894 23.0438C114.276 22.8287 114.572 22.5907 114.731 22.3161C114.901 22.0205 114.9 21.7047 114.734 21.4C114.577 21.1145 114.281 20.8471 113.882 20.5881L113.881 20.5876C112.287 19.5625 108.615 18.3163 102.599 17.1871C102.264 17.1166 101.926 17.0468 101.587 16.9766C100.608 16.7743 99.6171 16.5694 98.6297 16.34L98.6293 16.3399L96.6157 15.8749L96.6158 15.8748L96.6075 15.8732C95.9308 15.7409 95.2544 15.6086 94.5863 15.4764C90.8525 13.9333 86.4002 13.5285 81.9957 13.3151L81.9957 13.315L81.9877 13.3148C81.1647 13.3012 80.341 13.2804 79.5184 13.2597C78.1225 13.2245 76.7295 13.1893 75.347 13.1893C74.5481 13.1839 73.7558 13.1469 72.9653 13.11C72.6794 13.0966 72.3938 13.0833 72.1082 13.0714L72.1064 13.0714C71.7031 13.0576 71.3239 13.0079 70.9378 12.9574C70.8221 12.9423 70.7058 12.9271 70.588 12.9127C70.084 12.8513 69.5647 12.8076 69.0105 12.8737L69.0105 12.8735L69.0013 12.875C68.7696 12.9114 68.543 12.9448 68.3138 12.9787C68.1212 13.0071 67.9268 13.0358 67.7259 13.0667L67.7218 13.0674L66.4291 13.2888C65.572 13.4357 64.6973 13.5607 63.8203 13.6786C62.9913 13.786 62.1591 13.9161 61.3261 14.0464L61.1533 14.0734C60.2612 14.2127 59.368 14.3505 58.4694 14.4607L58.4693 14.4604L58.4573 14.4624C57.5586 14.6174 56.6577 14.7705 55.7565 14.9236L55.7555 14.9238C54.8547 15.0769 53.9536 15.23 53.0545 15.385L53.0545 15.3849L53.0461 15.3866C52.6023 15.479 52.1565 15.5732 51.7112 15.6673L51.7109 15.6673C51.2655 15.7614 50.8206 15.8554 50.3778 15.9476C50.2418 15.9759 50.105 16.0039 49.9679 16.0321C49.2184 16.1859 48.4565 16.3422 47.7249 16.5572M47.7249 16.5572C47.7255 16.557 47.7261 16.5568 47.7267 16.5567L47.7937 16.7975L47.7231 16.5577C47.7237 16.5575 47.7243 16.5573 47.7249 16.5572ZM82.6797 20.6134C71.9404 19.6982 61.0686 20.1558 50.8265 22.68L47.0313 23.7354C46.2195 23.9685 45.4284 24.2476 44.6357 24.5272C44.1985 24.6814 43.7608 24.8358 43.319 24.9827C40.8662 25.8389 38.546 26.8796 36.2838 28.0457C31.7677 30.4002 27.6327 33.3377 23.9784 36.6886C20.3241 40.0394 17.2083 43.8479 14.7638 47.9294C12.3193 52.0183 10.5958 56.4246 9.81682 60.9268C9.0379 65.4291 9.21191 70.0199 10.4466 74.3819C11.7227 78.7734 13.8855 82.9509 16.91 86.6486C20.5809 91.2173 25.3871 95.1069 30.7484 98.3397L82.6797 20.6134Z" fill="#FBFC6E" stroke="#FBFC6E" stroke-width="0.5"/>
</svg>
